<?xml version="1.0" encoding="utf-8"?>
<!-- Generator: Adobe Illustrator 13.0.0, SVG Export Plug-In . SVG Version: 6.00 Build 14948)  -->
<!DOCTYPE svg PUBLIC "-//W3C//DTD SVG 1.1//EN" "http://www.w3.org/Graphics/SVG/1.1/DTD/svg11.dtd">
<svg version="1.1" id="Layer_1" xmlns="http://www.w3.org/2000/svg" xmlns:xlink="http://www.w3.org/1999/xlink" x="0px" y="0px"
	 width="420px" height="413px" viewBox="0 0 420 413" enable-background="new 0 0 420 413" xml:space="preserve">
<rect opacity="0" fill="#FFFFFF" width="420" height="413"/>
<g>
	<g>
		<path fill="#38F99C" d="M153.89,121.166c0,3.794-3.371,6.899-7.489,6.899H46.572c-4.119,0-7.487-3.105-7.487-6.899
			c0-3.796,3.368-6.9,7.487-6.9H146.4C150.519,114.266,153.89,117.37,153.89,121.166z"/>
	</g>
	<circle fill="#33D2FD" cx="17.5" cy="121.167" r="6.898"/>
	<path fill="#F948B4" d="M420,121.166c0,3.794-3.369,6.898-7.486,6.898h-71.172c-4.119,0-7.488-3.104-7.488-6.898
		c0-3.796,3.369-6.9,7.488-6.9h71.172C416.631,114.266,420,117.37,420,121.166z"/>
	<path fill="#38F99C" d="M318.707,121.165c0,3.811-3.09,6.899-6.896,6.899c-3.811,0-6.899-3.089-6.899-6.899
		s3.089-6.899,6.899-6.899C315.617,114.266,318.707,117.354,318.707,121.165z"/>
	<g>
		<path fill="#33D2FD" d="M363.893,178.154c0,3.794-3.368,6.898-7.486,6.898H230.361c-4.119,0-7.487-3.104-7.487-6.898
			c0-3.797,3.368-6.902,7.487-6.902h126.045C360.524,171.252,363.893,174.357,363.893,178.154z"/>
	</g>
	<circle fill="#FECD0A" cx="385.879" cy="178.152" r="6.898"/>
	<path fill="#F948B4" d="M180.73,178.154c0,3.794-3.369,6.898-7.488,6.898H94.454c-4.118,0-7.487-3.104-7.487-6.898
		c0-3.797,3.369-6.902,7.487-6.902h78.788C177.361,171.252,180.73,174.357,180.73,178.154z"/>
	<path fill="#FECD0A" d="M201.582,406.102c0,3.793-3.368,6.898-7.487,6.898h-78.787c-4.117,0-7.485-3.105-7.485-6.898
		c0-3.794,3.368-6.899,7.485-6.899h78.787C198.214,399.202,201.582,402.308,201.582,406.102z"/>
	<path fill="#F948B4" d="M337.166,235.14c0,3.795-3.371,6.899-7.488,6.899H216.055c-4.119,0-7.488-3.104-7.488-6.899
		c0-3.794,3.369-6.898,7.488-6.898h113.623C333.795,228.241,337.166,231.346,337.166,235.14z"/>
	<g>
		<path fill="#38F99C" d="M76.535,235.14c0,3.795-3.371,6.899-7.489,6.899h-7.964c-4.119,0-7.488-3.104-7.488-6.899
			c0-3.794,3.369-6.898,7.488-6.898h7.964C73.164,228.241,76.535,231.346,76.535,235.14z"/>
	</g>
	<circle fill="#33D2FD" cx="98.35" cy="235.14" r="6.898"/>
	<path fill="#FECD0A" d="M173.634,292.127c0,3.796-3.371,6.898-7.488,6.898H52.521c-4.118,0-7.488-3.103-7.488-6.898
		c0-3.794,3.37-6.899,7.488-6.899h113.624C170.263,285.228,173.634,288.333,173.634,292.127z"/>
	<circle fill="#8181FC" cx="22.758" cy="292.127" r="6.899"/>
	<path fill="#8181FC" d="M355.859,292.127c0,3.796-3.369,6.898-7.487,6.898h-7.964c-4.119,0-7.488-3.103-7.488-6.898
		c0-3.795,3.369-6.901,7.488-6.901h7.964C352.49,285.226,355.859,288.332,355.859,292.127z"/>
	<circle fill="#FECD0A" cx="310.99" cy="292.127" r="6.899"/>
	<path fill="#38F99C" d="M384.572,292.127c0,3.811-3.088,6.898-6.896,6.898c-3.813,0-6.898-3.088-6.898-6.898
		s3.086-6.901,6.898-6.901C381.484,285.226,384.572,288.316,384.572,292.127z"/>
	<g>
		<path fill="#38F99C" d="M419.33,349.115c0,3.794-3.367,6.898-7.486,6.898h-81.593c-4.117,0-7.487-3.104-7.487-6.898
			c0-3.795,3.37-6.901,7.487-6.901h81.593C415.963,342.214,419.33,345.32,419.33,349.115z"/>
	</g>
	<path fill="#F948B4" d="M87.899,349.115c0,3.794-3.37,6.898-7.489,6.898H7.488c-4.12,0-7.488-3.104-7.488-6.898
		c0-3.795,3.368-6.901,7.488-6.901H80.41C84.529,342.214,87.899,345.32,87.899,349.115z"/>
	<g>
		<path fill="#33D2FD" d="M308.048,349.115c0,3.794-3.368,6.898-7.487,6.898h-22.564c-4.117,0-7.488-3.104-7.488-6.898
			c0-3.795,3.371-6.901,7.488-6.901h22.564C304.68,342.214,308.048,345.32,308.048,349.115z"/>
	</g>
	<circle fill="#38F99C" cx="110.003" cy="349.115" r="6.898"/>
	<path fill="#FECD0A" d="M188.217,64.116c0,3.795-3.369,6.9-7.488,6.9h-79.133c-4.117,0-7.487-3.105-7.487-6.9
		s3.37-6.901,7.487-6.901h79.133C184.848,57.215,188.217,60.321,188.217,64.116z"/>
	<circle fill="#38F99C" cx="71.834" cy="64.117" r="6.898"/>
	<g>
		<path fill="#38F99C" d="M379.145,64.24c0,3.795-3.369,6.899-7.486,6.899H258.032c-4.118,0-7.485-3.104-7.485-6.899
			s3.367-6.901,7.485-6.901h113.626C375.775,57.339,379.145,60.445,379.145,64.24z"/>
	</g>
	<path fill="#F948B4" d="M178.174,6.899c0,3.797-3.369,6.901-7.488,6.901H97.762c-4.12,0-7.488-3.104-7.488-6.901
		C90.273,3.104,93.642,0,97.762,0h72.924C174.805,0,178.174,3.104,178.174,6.899z"/>
	<g>
		<path fill="#33D2FD" d="M277.764,7.482c0,3.794-3.37,6.901-7.488,6.901h-22.566c-4.117,0-7.486-3.107-7.486-6.901
			c0-3.795,3.369-6.899,7.486-6.899h22.566C274.394,0.583,277.764,3.688,277.764,7.482z"/>
	</g>
	<circle fill="#38F99C" cx="200.275" cy="6.899" r="6.898"/>
</g>
</svg>
