<?xml version="1.0" encoding="utf-8"?>
<!-- Generator: Adobe Illustrator 13.0.0, SVG Export Plug-In . SVG Version: 6.00 Build 14948)  -->
<!DOCTYPE svg PUBLIC "-//W3C//DTD SVG 1.1//EN" "http://www.w3.org/Graphics/SVG/1.1/DTD/svg11.dtd">
<svg version="1.1" id="Layer_1" xmlns="http://www.w3.org/2000/svg" xmlns:xlink="http://www.w3.org/1999/xlink" x="0px" y="0px"
	 width="420px" height="413px" viewBox="0 0 420 413" enable-background="new 0 0 420 413" xml:space="preserve">
<rect opacity="0" fill="#FFFFFF" width="420" height="413"/>
<g>
	<g>
		<path fill="#F9C9A5" d="M110.57,363.072c-3.835,9.713-14.265,14.695-23.298,11.128c-9.033-3.566-13.25-14.332-9.416-24.045
			c3.833-9.714,17.523-21.469,26.559-17.903C113.448,335.82,114.403,353.359,110.57,363.072z"/>
		<path fill="#F9D7C0" d="M77.856,350.155c-1.878,4.757-1.821,9.766-0.215,14.06c7.879-3.825,13.406-12.758,13.406-23.168
			c0-1.968-0.203-3.882-0.578-5.719C84.911,339.028,79.937,344.89,77.856,350.155z"/>
		<path fill="#F9C9A5" d="M303.188,364.791c3.835,9.715,14.265,14.694,23.3,11.13c9.031-3.569,13.248-14.336,9.414-24.049
			s-17.523-21.469-26.557-17.901S299.353,355.077,303.188,364.791z"/>
		<path fill="#F9D7C0" d="M335.901,351.872c1.879,4.758,1.82,9.766,0.216,14.06c-7.879-3.823-13.405-12.756-13.405-23.168
			c0-1.966,0.202-3.879,0.575-5.718C328.847,340.746,333.821,346.607,335.901,351.872z"/>
		<g>
			<ellipse fill="#C6E0E9" cx="233.249" cy="202.791" rx="6.73" ry="3.464"/>
			<ellipse fill="#C6E0E9" cx="169.382" cy="202.791" rx="6.729" ry="3.464"/>
			<path fill="#EFBB8F" d="M234.562,191.867c-8.401,1.953-18.617,3.103-29.648,3.103c-14.57,0-27.729-2.004-37.145-5.223
				c0.956,5.876,1.32,13.833-1.528,21.073c-3.242,8.25,9.706,19.025,20.396,26.226c0.974,2.887,1.772,5.241,2.279,6.735h24.803
				c0.506-1.494,1.304-3.849,2.281-6.735c10.688-7.2,23.635-17.976,20.391-26.226C233.873,204.418,233.869,197.459,234.562,191.867z
				"/>
			<g>
				<path fill="#EFBB8F" d="M250.643,43.34c0,14.241,49.249,137.306-45.147,137.306c-100.127,0-55.209-123.064-55.209-137.306
					c0-14.239,22.467-25.78,50.178-25.78C228.177,17.56,250.643,29.101,250.643,43.34z"/>
				<path fill="#D08F5E" d="M201.494,76.951c0,0-0.725,22.345,9.934,34.393c4.844,3.834,7.669,1.424,9.445,0.548
					c1.778-0.875,2.82,4.783,1.044,10.698c-1.775,5.914-9.043,7.156-12.166,6.356c-3.64-0.939,10.881,0.472,11.122-10.263
					c-0.08-4.709,0.989-5.439-3.585-3.688C210.503,117.594,199.799,103.568,201.494,76.951z"/>
				<path fill="#06004E" d="M238.019,23.854c-26.236-12.835-56.051-16.045-69.537-3.094c-2.274,2.182-12.985,1.294-21.835,27.396
					l-0.035,0.006c-0.956,3.644-2.778,6.379-2.778,10.924c0,4.365,0.777,9.797,0.875,13.74l2.82-6.123
					c-0.964-3.213,6.242-11.045,6.613-18.979c0.014-0.292,0.049-0.579,0.072-0.868l-0.021,0.004
					c0.217-1.459,0.398-2.939,0.495-4.463c-0.046-0.445-0.069-0.897-0.069-1.356c0-7.277,5.899-13.177,13.175-13.177
					c1.149,0,2.259,0.162,3.319,0.439c0.035,0.008,0.087,0.012,0.119,0.019c0.045,0.013,0.086,0.033,0.135,0.045
					c0.414,0.116,0.818,0.252,1.215,0.409c0.049,0.018,0.102,0.033,0.15,0.054c2.569,1.043,4.732,2.871,6.195,5.188
					c2.211,2.971,3.402,5.765,4.904,5.076c10.998-5.041,31.181-13.446,43.075-13.446c11.894,0,20.968,9.898,21.536,22.077
					c0.373,7.935,7.579,15.767,6.615,18.979l2.82,6.123c0.098-3.943,0.875-9.375,0.875-13.74
					C258.753,40.386,250.011,29.72,238.019,23.854z"/>
				<g>
					<path fill="#EFBB8F" d="M139.456,84.128c-3.025,7.146-3.434,19.119-9.92,16.371c-6.484-2.747-12.512-16.283-9.484-23.432
						s10.738-10.716,17.225-7.967C143.765,71.849,142.484,76.979,139.456,84.128z"/>
					<path fill="#D08F5E" d="M138.667,82.611c0.553,0.045,1.037-0.034,1.475-0.163c0.459-1.153,0.859-2.251,1.16-3.286
						c-0.715-0.87-1.822-2.224-3.563-4.347c-4.84-5.908-10.923,1.802-10.923,1.802s7.123-2.231,8.996,1.425
						c0,0-13.269-0.395-5.821,15.951C130.353,90.352,127.532,78.206,138.667,82.611z"/>
				</g>
				<g>
					<path fill="#EFBB8F" d="M263.175,87.183c3.027,7.149,3.432,19.122,9.916,16.373c6.488-2.749,12.516-16.284,9.488-23.431
						c-3.025-7.148-10.74-10.718-17.225-7.968C258.866,74.905,260.147,80.034,263.175,87.183z"/>
					<path fill="#D08F5E" d="M263.964,85.667c-0.551,0.045-1.035-0.035-1.477-0.164c-0.457-1.152-0.855-2.25-1.159-3.284
						c0.718-0.872,1.823-2.224,3.563-4.346c4.84-5.91,10.922,1.8,10.922,1.8s-7.122-2.23-8.996,1.425c0,0,13.27-0.396,5.822,15.95
						C272.28,93.407,275.101,81.261,263.964,85.667z"/>
				</g>
				<path fill="#06004E" d="M255.147,66.75c1.725,10.848,7.496,36.567,6.127,45.892c-0.016,0.088-0.021,0.175-0.041,0.265
					c-0.174,1.049-0.443,1.883-0.832,2.431c-0.514,0.72-1.305,1.458-2.325,2.204c-8.123,7.614-30.581,16.588-56.89,16.588
					c-0.232,0-0.46-0.009-0.697-0.01c-0.101,0.01-0.212,0.022-0.314,0.032c-0.107-0.012-0.226-0.028-0.333-0.042
					c-24.282-0.283-44.905-8.13-53.769-15.305c-1.787-1.101-3.135-2.188-3.883-3.24c-3.77-5.291,3.313-36.373,5.251-48.583
					c-13.815,20.005-19.838,52.052-19.838,72.646c0,17.645,7.997,32.629,21.106,42.991c10.488,8.295,24.254,13.632,39.838,14.987
					c1.998,0.174,3.94,0.313,5.834,0.424c5.916,0.157,12.425-0.023,19.66-0.653c15.945-1.388,29.982-6.945,40.561-15.57
					c12.678-10.339,20.386-25.09,20.386-42.408C274.988,118.805,268.964,86.757,255.147,66.75z"/>
				<g>
					<g>
						<path fill="#06004E" d="M155.919,66.416c-0.063-1.454,0.851-3.344,2.025-4.199l24.896-18.13
							c1.174-0.857,2.582-0.452,3.129,0.896l8.593,21.216c0.546,1.347-0.194,2.54-1.646,2.644l-34.142,2.508
							c-1.452,0.105-2.688-0.998-2.749-2.45L155.919,66.416z"/>
					</g>
					<g>
						<path fill="#06004E" d="M244.841,67.025c0.062-1.454-0.85-3.342-2.025-4.197l-24.895-18.131
							c-1.176-0.856-2.584-0.453-3.131,0.895l-8.592,21.216c-0.546,1.349,0.193,2.541,1.643,2.646l34.145,2.506
							c1.452,0.104,2.688-0.999,2.75-2.451L244.841,67.025z"/>
					</g>
					<g>
						<path fill="#FFFFFF" d="M187.475,98.813c2.475-3.165,3.403-8.205,2.538-12.388c-1.532-7.402-8.249-8.937-15.35-8.249
							c-6.677,0.646-11.111,5.209-11.111,11.916c0,0.759,0.16,1.492,0.426,2.207C173.146,93.087,181.315,95.437,187.475,98.813z"/>
						<path fill="#10CAB7" d="M183.383,96.847c1.874-1.66,3.079-4.056,3.079-6.755c0-4.999-4.051-9.052-9.051-9.052
							c-4.998,0-9.05,4.053-9.05,9.052c0,0.978,0.196,1.903,0.481,2.786C174.208,93.694,179.134,95.056,183.383,96.847z"/>
						<path fill="#334752" d="M174.663,78.176c-2.871,0.278-5.291,1.316-7.156,2.898c5.592,1.252,12.396,1.99,19.757,1.99
							c0.497,0,0.981-0.016,1.472-0.022C186.089,78.56,180.509,77.611,174.663,78.176z"/>
						<path fill="#334752" d="M184.747,90.918c0-4.112-3.336-7.45-7.451-7.45c-4.113,0-7.45,3.338-7.45,7.45
							c0,0.776,0.157,1.51,0.376,2.21c4.379,0.755,8.432,1.871,12.045,3.292C183.774,95.059,184.747,93.113,184.747,90.918z"/>
						<path fill="#FFFFFF" d="M183.159,86.822c0.771,1.078,0.881,2.328,0.237,2.79c-0.642,0.459-1.788-0.039-2.567-1.119
							c-0.773-1.079-0.881-2.329-0.238-2.791C181.231,85.242,182.382,85.741,183.159,86.822z"/>
						<g>
							<g>
								<path fill="#1B1B1B" d="M188.864,67.29H179.7h-20.048h-9.163c-4.543,0.005-8.242,3.706-8.248,8.249v9.166v5.618
									c0.004,2.765,0.672,5.376,1.831,7.705c1.695,3.405,4.468,6.183,7.874,7.877c2.328,1.159,4.941,1.829,7.706,1.831H179.7
									c2.77-0.002,5.38-0.672,7.709-1.831c3.405-1.694,6.178-4.469,7.875-7.874c1.16-2.328,1.828-4.941,1.828-7.708v-5.618v-9.166
									C197.112,70.996,193.408,67.295,188.864,67.29z M195.284,76.996v7.709v5.618c-0.018,8.563-7.016,15.565-15.584,15.582
									h-20.048c-8.565-0.017-15.563-7.019-15.58-15.582v-5.618v-7.704v-1.462c0.008-3.521,2.896-6.408,6.417-6.418h1.457h7.706
									H179.7h7.709h1.455c3.525,0.01,6.413,2.896,6.42,6.418V76.996z"/>
							</g>
						</g>
						<rect x="196.085" y="76.228" fill="#1B1B1B" width="10.768" height="1.835"/>
						<path fill="none" d="M195.284,84.705v-7.709v-1.457c-0.007-3.521-2.895-6.408-6.42-6.418h-1.455H179.7h-20.048h-7.706h-1.457
							c-3.521,0.01-6.409,2.896-6.417,6.418v1.462v7.704v3.553c5.314-0.741,11.052-1.144,17.034-1.144
							c13.156,0,25.117,1.954,34.039,5.145c0.08-0.637,0.135-1.279,0.139-1.936V84.705z"/>
						<path opacity="0.2" fill="#FFFFFF" d="M144.072,88.258v2.065c0.018,8.563,7.015,15.565,15.58,15.582H179.7
							c7.909-0.016,14.468-5.987,15.445-13.646c-8.922-3.19-20.883-5.145-34.039-5.145
							C155.124,87.114,149.387,87.517,144.072,88.258z"/>
						<path fill="#FFFFFF" d="M215.115,98.813c-2.474-3.165-3.403-8.205-2.536-12.388c1.531-7.402,8.246-8.937,15.35-8.249
							c6.676,0.646,11.113,5.209,11.113,11.916c0,0.759-0.162,1.492-0.428,2.207C229.443,93.087,221.275,95.437,215.115,98.813z"/>
						<path fill="#10CAB7" d="M219.206,96.847c-1.873-1.66-3.076-4.056-3.076-6.755c0-4.999,4.051-9.052,9.049-9.052
							c4.997,0,9.051,4.053,9.051,9.052c0,0.978-0.197,1.903-0.482,2.786C228.382,93.694,223.458,95.056,219.206,96.847z"/>
						<path fill="#334752" d="M227.929,78.176c2.871,0.278,5.289,1.316,7.155,2.898c-5.593,1.252-12.397,1.99-19.755,1.99
							c-0.5,0-0.984-0.016-1.474-0.022C216.501,78.56,222.08,77.611,227.929,78.176z"/>
						<path fill="#334752" d="M217.845,90.918c0-4.112,3.335-7.45,7.449-7.45c4.112,0,7.45,3.338,7.45,7.45
							c0,0.776-0.155,1.51-0.376,2.21c-4.377,0.755-8.432,1.871-12.044,3.292C218.816,95.059,217.845,93.113,217.845,90.918z"/>
						<path fill="#FFFFFF" d="M218.927,87.643c0.679-1.145,1.776-1.746,2.457-1.343s0.687,1.655,0.01,2.801
							c-0.674,1.144-1.774,1.745-2.455,1.342C218.259,90.04,218.253,88.787,218.927,87.643z"/>
						<g>
							<g>
								<path fill="#1B1B1B" d="M205.479,75.539v9.166v5.618c0,2.767,0.668,5.38,1.829,7.708c1.696,3.405,4.468,6.18,7.872,7.874
									c2.328,1.159,4.941,1.829,7.708,1.831h20.049c2.769-0.002,5.379-0.672,7.706-1.831c3.405-1.694,6.179-4.472,7.875-7.877
									c1.159-2.329,1.828-4.94,1.83-7.705v-5.618v-9.166c-0.004-4.543-3.705-8.244-8.246-8.249h-9.165h-20.049h-9.163
									C209.183,67.295,205.479,70.996,205.479,75.539z M207.309,75.539c0.006-3.521,2.894-6.408,6.417-6.418h1.455h7.708h20.049
									h7.705h1.46c3.522,0.01,6.406,2.896,6.416,6.418v1.462v7.704v5.618c-0.018,8.563-7.016,15.565-15.581,15.582h-20.049
									c-8.563-0.017-15.564-7.019-15.58-15.582v-5.618v-7.709V75.539z"/>
							</g>
						</g>
						<path fill="none" d="M207.309,84.705v-7.709v-1.457c0.006-3.521,2.894-6.408,6.417-6.418h1.455h7.708h20.049h7.705h1.46
							c3.522,0.01,6.406,2.896,6.416,6.418v1.462v7.704v3.553c-5.315-0.741-11.052-1.144-17.035-1.144
							c-13.156,0-25.115,1.954-34.039,5.145c-0.079-0.637-0.134-1.279-0.136-1.936V84.705z"/>
						<path opacity="0.2" fill="#FFFFFF" d="M258.519,88.258v2.065c-0.018,8.563-7.016,15.565-15.581,15.582h-20.049
							c-7.906-0.016-14.466-5.987-15.444-13.646c8.924-3.19,20.883-5.145,34.039-5.145
							C247.467,87.114,253.203,87.517,258.519,88.258z"/>
					</g>
				</g>
			</g>
			<polygon fill="#C6E0E9" points="177.831,219.073 194.9,214.678 205.325,243.781 138.536,243.781 154.233,217.17 			"/>
			<g>
				<g>
					<path fill="#EBF8FD" d="M162.751,201.833c0.648-0.771,1.931-1.06,2.848-0.641l28.74,13.143c0.92,0.419,1.158,1.41,0.534,2.202
						l-20.797,26.452c-0.622,0.792-1.847,1.028-2.72,0.522l-27.832-16.041c-0.875-0.503-1.058-1.547-0.408-2.317L162.751,201.833z"
						/>
				</g>
			</g>
			<polygon fill="#C6E0E9" points="224.8,219.073 207.73,214.678 197.308,243.781 264.095,243.781 248.399,217.17 			"/>
			<g>
				<g>
					<path fill="#EBF8FD" d="M239.882,201.833c-0.65-0.771-1.932-1.06-2.848-0.641l-28.744,13.143
						c-0.916,0.419-1.156,1.41-0.532,2.202l20.797,26.452c0.626,0.792,1.849,1.028,2.722,0.522l27.832-16.041
						c0.873-0.503,1.057-1.547,0.406-2.317L239.882,201.833z"/>
				</g>
			</g>
		</g>
		<path fill="#C6E0E9" d="M371.218,366.58c-0.053-3.795-6.971-6.868-15.501-6.868c-8.529,0-15.448,3.073-15.5,6.868h-0.004v2.844
			h0.008c0.056,2.27,2.355,4.112,5.163,4.112h20.67c2.806,0,5.104-1.843,5.162-4.112h0.004v-2.844H371.218z"/>
		<g>
			<path fill="#06004E" d="M412.53,381.973c0,4.725-3.865,8.591-8.59,8.591H28.997c-4.726,0-8.592-3.866-8.592-8.591l0,0
				c0-4.727,3.866-8.593,8.592-8.593H403.94C408.665,373.38,412.53,377.246,412.53,381.973L412.53,381.973z"/>
		</g>
		<g>
			<g>
				<path fill="#C6E0E9" d="M313.747,369.8c0,4.727-3.864,8.592-8.59,8.592H105.444c-4.724,0-8.589-3.865-8.589-8.592V243.936
					c0-4.725,3.865-8.591,8.589-8.591h199.713c4.726,0,8.59,3.866,8.59,8.591V369.8z"/>
			</g>
		</g>
		<path fill="#EBF8FD" d="M101.434,290.788c11.991-31.957,42.796-52.15,78.396-55.443h-74.386c-4.724,0-8.589,3.866-8.589,8.591
			v66.069C97.571,303.528,99.068,297.089,101.434,290.788z"/>
		<path fill="#EBF8FD" d="M313.747,369.8v-64.784c-0.766,6.067-2.216,12.098-4.436,18.006
			c-11.913,31.749-42.398,51.882-77.705,55.37h73.551C309.883,378.392,313.747,374.526,313.747,369.8z"/>
		<path fill="#EBF8FD" d="M349.217,370.229c9.863,0,18.053-3.117,19.699-7.217c-2.728-1.978-7.606-3.301-13.199-3.301
			c-8.529,0-15.448,3.073-15.5,6.868h-0.004v2.717C342.921,369.892,345.979,370.229,349.217,370.229z"/>
	</g>
</g>
</svg>
