<?xml version="1.0" encoding="utf-8"?>
<!-- Generator: Adobe Illustrator 13.0.0, SVG Export Plug-In . SVG Version: 6.00 Build 14948)  -->
<!DOCTYPE svg PUBLIC "-//W3C//DTD SVG 1.1//EN" "http://www.w3.org/Graphics/SVG/1.1/DTD/svg11.dtd">
<svg version="1.1" id="Layer_1" xmlns="http://www.w3.org/2000/svg" xmlns:xlink="http://www.w3.org/1999/xlink" x="0px" y="0px"
	 width="195px" height="295px" viewBox="0 0 195 295" enable-background="new 0 0 195 295" xml:space="preserve">
<g>
	<rect opacity="0" fill="#FFFFFF" width="195" height="295"/>
	<g>
		<path fill="#FFFFFF" d="M164.773,197.615c0.073-8.279,6.81-14.969,15.112-14.969c8.301,0,15.037,6.689,15.11,14.969H195v16.54
			h-0.008c-0.19,8.179-6.878,14.752-15.106,14.752c-8.23,0-14.92-6.573-15.107-14.752h-0.009v-16.54H164.773z"/>
		<path opacity="0.2" fill="#007C6D" d="M174.768,192.008c0,0.783,0.636,1.417,1.417,1.417l0,0c0.782,0,1.418-0.634,1.418-1.417
			v-3.775c0-0.782-0.636-1.417-1.418-1.417l0,0c-0.781,0-1.417,0.635-1.417,1.417V192.008z"/>
		<path opacity="0.2" fill="#007C6D" d="M188.899,201.559c0,0.798,0.646,1.446,1.446,1.446l0,0c0.798,0,1.446-0.648,1.446-1.446
			v-1.771c0-0.798-0.648-1.445-1.446-1.445l0,0c-0.8,0-1.446,0.647-1.446,1.445V201.559z"/>
		<path opacity="0.2" fill="#007C6D" d="M170.812,206.24c0,0.894,0.728,1.621,1.624,1.621l0,0c0.897,0,1.624-0.728,1.624-1.621
			v-4.427c0-0.896-0.727-1.622-1.624-1.622l0,0c-0.896,0-1.624,0.727-1.624,1.622V206.24z"/>
		<path opacity="0.2" fill="#007C6D" d="M168.922,220.823c0,0.588,0.477,1.063,1.063,1.063l0,0c0.586,0,1.063-0.476,1.063-1.063
			v-3.127c0-0.587-0.477-1.063-1.063-1.063l0,0c-0.587,0-1.063,0.476-1.063,1.063V220.823z"/>
		<path opacity="0.2" fill="#007C6D" d="M186.872,218.71c0,0.7,0.569,1.268,1.27,1.268l0,0c0.701,0,1.27-0.567,1.27-1.268v-3.894
			c0-0.701-0.568-1.271-1.27-1.271l0,0c-0.7,0-1.27,0.569-1.27,1.271V218.71z"/>
		<path fill="#9B4438" d="M179.365,209.297c-0.321,0.323-0.323,0.846,0,1.169l0,0c0.323,0.321,0.847,0.321,1.169,0l4.594-4.59
			c0.321-0.323,0.322-0.846,0-1.168l0,0c-0.323-0.323-0.847-0.323-1.17,0L179.365,209.297z"/>
		<path fill="#9B4438" d="M180.183,198.489c-0.176,0.176-0.176,0.461,0,0.637l0,0c0.177,0.177,0.463,0.177,0.639,0l2.505-2.503
			c0.177-0.178,0.177-0.462,0-0.639l0,0c-0.176-0.176-0.461-0.176-0.638,0L180.183,198.489z"/>
		<path fill="#9B4438" d="M172.2,212.948c0.324-0.322,0.848-0.321,1.17,0l6.925,6.921c0.323,0.323,0.323,0.846,0,1.169
			c-0.321,0.323-0.846,0.321-1.168,0l-2.333-2.33c0-0.001,0-0.001,0-0.001l-4.594-4.59
			C171.879,213.794,171.879,213.271,172.2,212.948z"/>
		<path fill="#9B4438" d="M175.795,199.742c0.18-0.18,0.473-0.18,0.653,0l3.875,3.873c0.181,0.18,0.181,0.472,0,0.652
			c-0.181,0.182-0.474,0.182-0.654,0l-1.304-1.303c0-0.001,0-0.001-0.001-0.001l-2.569-2.567
			C175.614,200.215,175.614,199.924,175.795,199.742z"/>
		<path fill="#9B4438" d="M179.944,195.097c0.456,0,0.826,0.371,0.826,0.826v59.007c0,0.456-0.37,0.827-0.826,0.827
			c-0.457,0-0.828-0.371-0.828-0.827v-59.007C179.116,195.468,179.487,195.097,179.944,195.097z"/>
	</g>
</g>
</svg>
