<?xml version="1.0" encoding="utf-8"?>
<!-- Generator: Adobe Illustrator 13.0.0, SVG Export Plug-In . SVG Version: 6.00 Build 14948)  -->
<!DOCTYPE svg PUBLIC "-//W3C//DTD SVG 1.1//EN" "http://www.w3.org/Graphics/SVG/1.1/DTD/svg11.dtd">
<svg version="1.1" id="Layer_1" xmlns="http://www.w3.org/2000/svg" xmlns:xlink="http://www.w3.org/1999/xlink" x="0px" y="0px"
	 width="195px" height="295px" viewBox="0 0 195 295" enable-background="new 0 0 195 295" xml:space="preserve">
<g>
	<rect opacity="0" fill="#FFFFFF" width="195" height="295"/>
	<g>
		<path fill="#FFFFFF" d="M184.33,59.478C184.037,26.628,157.31,0.09,124.372,0.09c-32.94,0-59.667,26.538-59.959,59.388h-0.015
			v65.629h0.036c0.75,32.45,27.286,58.529,59.938,58.529c32.65,0,59.188-26.079,59.937-58.529h0.036V59.478H184.33z"/>
		<path opacity="0.2" fill="#007C6D" d="M144.675,37.235c0,3.104-2.519,5.618-5.623,5.618l0,0c-3.104,0-5.621-2.514-5.621-5.618
			V22.252c0-3.103,2.517-5.619,5.621-5.619l0,0c3.104,0,5.623,2.516,5.623,5.619V37.235z"/>
		<path opacity="0.2" fill="#007C6D" d="M88.607,75.122c0,3.169-2.57,5.737-5.74,5.737l0,0c-3.17,0-5.741-2.568-5.741-5.737V68.1
			c0-3.168,2.57-5.735,5.741-5.735l0,0c3.17,0,5.74,2.566,5.74,5.735V75.122z"/>
		<path opacity="0.2" fill="#007C6D" d="M160.37,93.697c0,3.557-2.885,6.438-6.441,6.438l0,0c-3.559,0-6.443-2.881-6.443-6.438
			V76.138c0-3.554,2.885-6.438,6.443-6.438l0,0c3.557,0,6.441,2.884,6.441,6.438V93.697z"/>
		<path opacity="0.2" fill="#007C6D" d="M167.87,151.563c0,2.327-1.891,4.215-4.219,4.215l0,0c-2.328,0-4.215-1.888-4.215-4.215
			v-12.409c0-2.329,1.887-4.213,4.215-4.213l0,0c2.328,0,4.219,1.885,4.219,4.213V151.563z"/>
		<path opacity="0.2" fill="#007C6D" d="M96.649,143.175c0,2.78-2.255,5.033-5.037,5.033l0,0c-2.782,0-5.038-2.253-5.038-5.033
			v-15.453c0-2.779,2.255-5.034,5.038-5.034l0,0c2.782,0,5.037,2.255,5.037,5.034V143.175z"/>
		<path fill="#9B4438" d="M126.433,105.828c1.279,1.281,1.281,3.355,0,4.635l0,0c-1.283,1.281-3.358,1.281-4.641,0l-18.221-18.209
			c-1.279-1.28-1.281-3.354,0-4.634l0,0c1.281-1.281,3.358-1.281,4.638,0L126.433,105.828z"/>
		<path fill="#9B4438" d="M123.188,62.945c0.698,0.698,0.7,1.829,0,2.527l0,0c-0.7,0.7-1.832,0.7-2.531,0l-9.941-9.933
			c-0.697-0.698-0.699-1.83,0-2.53l0,0c0.699-0.699,1.832-0.699,2.531,0L123.188,62.945z"/>
		<path fill="#9B4438" d="M154.855,120.316c-1.281-1.28-3.356-1.279-4.638,0l-27.476,27.457c-1.281,1.281-1.281,3.354,0,4.637
			c1.28,1.281,3.356,1.279,4.638,0l9.248-9.244c0.002-0.002,0.004-0.002,0.008-0.003l18.22-18.211
			C156.137,123.672,156.137,121.597,154.855,120.316z"/>
		<path fill="#9B4438" d="M140.601,67.918c-0.716-0.716-1.877-0.716-2.595,0l-15.372,15.363c-0.716,0.717-0.716,1.876,0,2.595
			c0.717,0.715,1.878,0.715,2.594,0l5.177-5.173c0-0.003,0-0.003,0.001-0.003l10.195-10.188
			C141.318,69.796,141.318,68.636,140.601,67.918z"/>
		<path fill="#9B4438" d="M124.138,49.486c-1.813,0-3.28,1.469-3.28,3.279v234.115c0,1.809,1.468,3.277,3.28,3.277
			s3.279-1.469,3.279-3.277V52.766C127.417,50.956,125.95,49.486,124.138,49.486z"/>
	</g>
</g>
</svg>
