<?xml version="1.0" encoding="utf-8"?>
<!-- Generator: Adobe Illustrator 13.0.0, SVG Export Plug-In . SVG Version: 6.00 Build 14948)  -->
<!DOCTYPE svg PUBLIC "-//W3C//DTD SVG 1.1//EN" "http://www.w3.org/Graphics/SVG/1.1/DTD/svg11.dtd">
<svg version="1.1" id="Layer_1" xmlns="http://www.w3.org/2000/svg" xmlns:xlink="http://www.w3.org/1999/xlink" x="0px" y="0px"
	 width="195px" height="295px" viewBox="0 0 195 295" enable-background="new 0 0 195 295" xml:space="preserve">
<g>
	<rect opacity="0" fill="#FFFFFF" width="195" height="295"/>
	<g>
		<path fill="#FFFFFF" d="M45.226,189.019c-0.11-12.387-10.19-22.396-22.609-22.396c-12.421,0-22.5,10.009-22.61,22.396H0v24.748
			h0.014c0.283,12.236,10.289,22.07,22.602,22.07c12.312,0,22.319-9.834,22.602-22.07h0.014v-24.748H45.226z"/>
		<path opacity="0.2" fill="#007C6D" d="M30.272,180.63c0,1.172-0.95,2.119-2.12,2.119l0,0c-1.17,0-2.121-0.947-2.121-2.119v-5.649
			c0-1.17,0.951-2.119,2.121-2.119l0,0c1.17,0,2.12,0.949,2.12,2.119V180.63z"/>
		<path opacity="0.2" fill="#007C6D" d="M9.128,194.918c0,1.195-0.968,2.163-2.164,2.163l0,0c-1.196,0-2.165-0.968-2.165-2.163
			v-2.649c0-1.192,0.969-2.161,2.165-2.161l0,0c1.196,0,2.164,0.969,2.164,2.161V194.918z"/>
		<path opacity="0.2" fill="#007C6D" d="M36.191,201.922c0,1.341-1.088,2.428-2.429,2.428l0,0c-1.342,0-2.431-1.087-2.431-2.428
			v-6.621c0-1.34,1.089-2.428,2.431-2.428l0,0c1.341,0,2.429,1.088,2.429,2.428V201.922z"/>
		<path opacity="0.2" fill="#007C6D" d="M39.019,223.743c0,0.877-0.713,1.589-1.591,1.589l0,0c-0.877,0-1.59-0.712-1.59-1.589
			v-4.681c0-0.877,0.712-1.588,1.59-1.588l0,0c0.878,0,1.591,0.711,1.591,1.588V223.743z"/>
		<path opacity="0.2" fill="#007C6D" d="M12.161,220.58c0,1.049-0.85,1.897-1.899,1.897l0,0c-1.048,0-1.898-0.849-1.898-1.897
			v-5.826c0-1.049,0.85-1.898,1.898-1.898l0,0c1.049,0,1.899,0.85,1.899,1.898V220.58z"/>
		<path fill="#9B4438" d="M23.392,206.497c0.484,0.483,0.484,1.266,0,1.747l0,0c-0.482,0.483-1.265,0.483-1.748,0l-6.871-6.867
			c-0.483-0.481-0.484-1.265,0-1.746l0,0c0.482-0.483,1.266-0.483,1.749,0L23.392,206.497z"/>
		<path fill="#9B4438" d="M22.17,190.325c0.263,0.265,0.263,0.69,0,0.954l0,0c-0.264,0.264-0.692,0.264-0.956,0l-3.748-3.746
			c-0.264-0.265-0.265-0.69,0-0.954l0,0c0.264-0.264,0.691-0.264,0.955,0L22.17,190.325z"/>
		<path fill="#9B4438" d="M34.111,211.961c-0.482-0.484-1.266-0.483-1.749,0l-10.361,10.354c-0.482,0.482-0.482,1.265,0,1.748
			c0.483,0.483,1.267,0.481,1.75,0l3.486-3.485c0,0,0.002,0,0.002-0.001l6.872-6.867C34.594,213.227,34.594,212.443,34.111,211.961z
			"/>
		<path fill="#9B4438" d="M28.735,192.201c-0.269-0.27-0.708-0.27-0.979,0l-5.797,5.793c-0.271,0.271-0.271,0.707,0,0.979
			c0.271,0.27,0.708,0.27,0.979,0l1.953-1.95c0-0.002,0-0.002,0-0.002l3.844-3.843C29.006,192.908,29.006,192.472,28.735,192.201z"
			/>
		<path fill="#9B4438" d="M22.527,185.25c-0.683,0-1.237,0.555-1.237,1.236v88.285c0,0.682,0.555,1.236,1.237,1.236
			c0.683,0,1.236-0.555,1.236-1.236v-88.285C23.764,185.805,23.21,185.25,22.527,185.25z"/>
	</g>
</g>
</svg>
