<?xml version="1.0" encoding="utf-8"?>
<!-- Generator: Adobe Illustrator 13.0.0, SVG Export Plug-In . SVG Version: 6.00 Build 14948)  -->
<!DOCTYPE svg PUBLIC "-//W3C//DTD SVG 1.1//EN" "http://www.w3.org/Graphics/SVG/1.1/DTD/svg11.dtd">
<svg version="1.1" id="Layer_1" xmlns="http://www.w3.org/2000/svg" xmlns:xlink="http://www.w3.org/1999/xlink" x="0px" y="0px"
	 width="195px" height="295.09px" viewBox="0 0 195 295.09" enable-background="new 0 0 195 295.09" xml:space="preserve">
<rect opacity="0" fill="#FFFFFF" width="195" height="295"/>
<g>
	<path fill="#33D2FD" d="M65.088,231.044l31.757,61.268c0.596,1.454,2.023,2.479,3.693,2.479c2.203,0,3.99-1.786,3.99-3.987
		c0-0.659-0.164-1.279-0.445-1.826h0.001l-28.047-60.03l13.701-33.995l-5.36-2.137l-5.845-4.422L65.417,225
		c-0.648,0.934-1.031,2.065-1.031,3.286c0,0.924,0.223,1.794,0.609,2.567h-0.006l0.081,0.155
		C65.076,231.021,65.081,231.033,65.088,231.044z M75.889,228.907l0.096,0.036l-0.104,0.014
		C75.883,228.941,75.886,228.924,75.889,228.907z"/>
	<polygon fill="#33D2FD" points="111.307,191.244 89.432,290.166 88.664,291.176 81.981,290.118 96.067,203.207 110.152,191.053 	
		"/>
	<polygon fill="#193442" points="71.924,157.71 62.63,157.71 58.524,140.349 67.819,140.349 	"/>
	<path fill="#EDBF98" d="M57.548,159.262c-0.009-0.014-0.016-0.025-0.024-0.038l-0.08-0.12l0-0.01
		c-0.263-0.442-0.416-0.959-0.416-1.513c0-0.164,0.017-0.323,0.042-0.479h-0.009c0,0,0.008-0.023,0.019-0.059
		c0.038-0.215,0.1-0.423,0.184-0.621c0.258-0.946,0.689-2.812,0.834-5.14c0.111-2.023,1.782-3.63,3.834-3.63
		c2.125,0,3.846,1.721,3.846,3.844c0,1.21-0.561,2.287-1.436,2.993l-0.001,0.002c0,0-0.92,0.56-1.353,3.202
		c-0.002,0.001-0.003,0.001-0.006,0.001c-0.003,0.121-0.016,0.242-0.035,0.361l8.471,6.155l1.33-2.946l9.904,3.651l-0.433,7.783
		c0,0-0.01,0.51-1.458,0c0.349,0.749-0.432,0.721-0.432,1.602c0,3.237-2.625,5.862-5.866,5.862c-1.873,0-3.538-0.882-4.611-2.248
		l-0.028-0.02l-0.1-0.15c-0.108-0.148-0.208-0.302-0.302-0.459L57.548,159.262z"/>
	<path fill="#D8A782" d="M82.221,172.699l0.368-6.606l-5.016-0.744c0,0,0.814,9.862-1.478,14.581
		c2.446-0.707,4.236-2.957,4.236-5.629c0-0.881,0.78-0.853,0.432-1.602C82.211,173.209,82.221,172.699,82.221,172.699z"/>
	<ellipse fill="#33D2FD" cx="94.785" cy="187.145" rx="17.05" ry="17.039"/>
	<path fill="#F948B4" d="M77.894,184.87l0.993-6.822l0.146-11.498l-6.283-5.285l7.004-17.681c0.165-0.63,0.399-1.229,0.707-1.782
		l0.03-0.073l0.01-0.001c1.344-2.361,3.9-3.937,6.809-3.892l26.984,0.419c4.115,0.064,7.416,3.348,7.558,7.415l0.017,0.029
		l3.332,20.755l-1.666,1.568l-7.949,7.495l-3.781,12.748L77.894,184.87z"/>
	
		<line fill="none" stroke="#33D2FD" stroke-width="0" stroke-linecap="round" stroke-linejoin="round" x1="84.377" y1="192.815" x2="84.377" y2="192.815"/>
	<path fill="#EDBF98" d="M95.97,137.965v-20.257l5.895-0.304c0.178-1.17,1.187-2.068,2.407-2.068c1.346,0,2.436,1.091,2.436,2.435
		c0,0.414-0.104,0.804-0.288,1.145l0.925,19.228l1.722,0.027c-0.767,3.349-4.644,5.896-9.313,5.896c-4.807,0-8.774-2.698-9.374-6.19
		L95.97,137.965z"/>
	<path fill="#193442" d="M95.084,116.688c-1.494,0.809-3.34,1.29-5.338,1.29c-4.98,0-9.015-2.97-9.015-6.631
		c0-1.546,0.721-2.964,1.923-4.092c-0.012-0.121-0.025-0.241-0.025-0.365c0-2.832,3.105-5.127,6.935-5.127
		c1.589,0,3.048,0.398,4.217,1.063c0.549-1.138,1.57-1.904,2.741-1.904c1.405,0,2.595,1.099,3.014,2.62
		c0.139-0.006,0.277-0.019,0.417-0.019c4.06,0,7.406,2.744,7.958,6.307c0.992,4.328,0.68,13.423,0.68,13.423
		c0,1.125-1.664,2.885-2.789,2.868c-1.458-0.024-1.282-1.743-1.282-2.868l-0.052-3.026c1.253-0.102,2.24-1.148,2.24-2.426
		c0-1.344-1.09-2.434-2.436-2.434c-1.347,0-2.437,1.09-2.437,2.434c0,0.062,0.004,0.121,0.009,0.182l0.008,10.868l-0.006,0.013
		c0.004,0.067,0.014,0.131,0.014,0.2c0,2.425-2.429,4.407-5.508,4.583l-0.013,0.009l-6.612,0.493
		c-0.044,0.005-0.087,0.007-0.133,0.01l-0.146,0.011l-0.003-0.003c-0.02,0.001-0.041,0.003-0.062,0.003
		c-1.616,0-2.938-1.28-3.064-2.906h-0.006l-0.444-8.55c0-0.078,0.063-0.142,0.141-0.142l10.556-0.446
		c1.494-0.014,2.699-1.201,2.699-2.662c0-0.044-0.004-0.088-0.007-0.131l0.001,0l-0.065-1.173
		C97.656,118.025,96.248,117.498,95.084,116.688z"/>
	<path fill="#EDBF98" d="M92.407,112.122c2.739-0.129,4.888-1.354,5.473-3.092c0,0,0.003,0.002,0.003,0.001
		c0-0.008,0.003-0.015,0.005-0.021c0.016-0.05,0.036-0.1,0.05-0.15c0.002-0.013,0.008-0.025,0.013-0.038
		c0.07-0.11,0.188-0.188,0.329-0.188c0.219,0,0.396,0.179,0.396,0.397c0,0.003-0.001,0.005-0.001,0.007h0.001l0.583,10.293l-0.001,0
		c0.003,0.043,0.007,0.087,0.007,0.131c0,1.461-1.205,2.648-2.699,2.662l-10.692,0.578l-0.268-10.177
		C88.284,112.362,91.598,112.16,92.407,112.122z"/>
	<path fill="#FFFFFF" d="M87.354,125.12c0,0,0-0.001,0-0.002c0-0.004,0.001-0.005,0.001-0.009c0.002-0.014,0.001-0.03,0.004-0.046
		h0.005c0.025-0.159,0.155-0.282,0.319-0.291v-0.004h4.333v0.003c0.003,0,0.007-0.003,0.011-0.003c0.175,0,0.311,0.129,0.338,0.295
		h0.003c0.001,0.009,0.001,0.018,0.002,0.027s0.005,0.018,0.005,0.027c0,0.004-0.002,0.006-0.002,0.011
		c0.007,0.052,0.014,0.104,0.014,0.159c0,1.025-1.129,2.214-2.525,2.214c-1.394,0-2.525-1.189-2.525-2.214
		C87.339,125.23,87.347,125.176,87.354,125.12z"/>
	<path fill="#193442" d="M76.74,293.59c0-0.275,0.132-0.516,0.33-0.676l0.001-0.004l0.014-0.008
		c0.061-0.045,0.124-0.084,0.194-0.113l4.725-2.742l7.403,0.023l0.054,4.309c0.001,0.022,0.006,0.041,0.006,0.063
		c0,0.358-0.29,0.648-0.649,0.648l-10.603-0.011c-0.038,0.007-0.077,0.011-0.118,0.011c-0.173,0-0.331-0.068-0.447-0.179h-0.004
		l-0.644-0.702C76.842,294.052,76.74,293.834,76.74,293.59z"/>
	<path fill="#193442" d="M101.618,283.701l2.466,5.276h-0.001c0.281,0.547,0.445,1.167,0.445,1.826c0,2.201-1.787,3.987-3.99,3.987
		c-1.67,0-3.097-1.025-3.693-2.479l-2.625-5.064L101.618,283.701z"/>
	<polygon fill="#D62537" points="81.034,150.983 110.938,163.857 114.303,150.311 116.13,168.183 112.38,174.334 	"/>
	<polygon fill="#D62537" points="112.926,184.481 115.507,175.784 80.906,155.596 	"/>
	<polygon fill="#D62537" points="79.032,166.55 79.737,154.73 77.573,165.349 	"/>
	<path fill="#EDBF98" d="M71.42,151.623c0-2.051,1.664-3.714,3.718-3.714c0.443,0,0.868,0.082,1.262,0.224h0.003
		c0,0,2.516,0.864,5.85,3.074c3.397,1.795,33.685,16.56,33.685,16.56s0.609,0.256,2.659-0.191c2.052-0.449,6.603-1.121,6.603-1.121
		l1.484,7.912c0.219,0.655,0.342,1.353,0.342,2.079c0,3.628-2.941,6.568-6.568,6.568c-1.32,0-2.545-0.393-3.575-1.062l0.017,0.037
		l-36.024-25.337c0,0-0.897-0.704-2.853-0.8c-1.29-0.123-2.644-0.274-3.637-0.591C72.693,154.914,71.42,153.418,71.42,151.623z"/>
	<polygon fill="#D8A782" points="71.42,164.211 75.778,167.479 71.86,163.234 	"/>
</g>
</svg>
